# xmcd
#
# Track frame offsets: 
#        150
#        13850
#        27200
#        41712
#        55575
#        69875
#        84550
#        97293
#        109994
#        119206
#        128432
#        141413
#        157051
#        169589
#        182001
#        195614
#        208802
#        220552
#        233228
#        247054
#        261293
#        276004
#        289391
#        303587
#        317576
#        331441
#        345131
#
# Disc length: 4788 seconds
#
# Revision: 1
# Processed by: cddbd v1.5.2PL0 Copyright (c) Steve Scherf et al.
# Submitted via: ExactAudioCopy v1.3
#
DISCID=9a12b21b
DTITLE=Various Artist - Akella Presents - Greatest Bluesmen  vol. 01 
DTITLE=CD2
DYEAR=2017
DGENRE=Blues
TTITLE0=Memphis Minnie - Where Is My Good Man At
TTITLE1=Charlie Patton - 34 Blues
TTITLE2=Ma Rainey - Sleep Talkin' Blues
TTITLE3=Blind Gary Davis - Lord I Wish I Could See
TTITLE4=Tom Dickson - Death Bell Blues
TTITLE5=Bessie Smith - The Gin House Blues
TTITLE6=Blind Boy Fuller - Untrue Blues
TTITLE7=Tommy McClennan - Cross Cut Saw Blues
TTITLE8=W.C. Handy - Mister Crump
TTITLE9=Leadbelly - Midnight Special
TTITLE10=Memphis Minnie - Black Rat Swing
TTITLE11=Tampa Red - Sugar Mama Blues
TTITLE12=Mississippi John Hurt - Louis Collins
TTITLE13=Sonny Boy Williamson - Cool Cool Blues
TTITLE14=Blind Willie McTell - Scarey Day Blues
TTITLE15=Bukka White - Special Stream Line
TTITLE16=Furry Lewis - Billy Lyons And Stackolee
TTITLE17=Bumble Bee Slim - Cruel Hearted Woman
TTITLE18=Hambone Willie Newbern - Roll and Tumble Blues
TTITLE19=Lonnie Johnson - Life Saver Blues
TTITLE20=Mississippi Sheiks - Sitting on Top of the World
TTITLE21=Leroy Carr - When the Sun Goes Down
TTITLE22=Kokomo Arnold - Sissy Man Blues
TTITLE23=Johnny Temple - Lead Pencil Blues
TTITLE24=Scrapper Blackwell - Kokomo Blues
TTITLE25=Rev. E.W. Clayborn - Your Enemy Cannot Harm You
TTITLE26=Peetie Wheatstraw - Police Station Blues
EXTD=
EXTT0=
EXTT1=
EXTT2=
EXTT3=
EXTT4=
EXTT5=
EXTT6=
EXTT7=
EXTT8=
EXTT9=
EXTT10=
EXTT11=
EXTT12=
EXTT13=
EXTT14=
EXTT15=
EXTT16=
EXTT17=
EXTT18=
EXTT19=
EXTT20=
EXTT21=
EXTT22=
EXTT23=
EXTT24=
EXTT25=
EXTT26=
PLAYORDER=
